# Blender v2.78 (sub 0) OBJ File: 'DucatoFree_3DS.3ds'
# www.blender.org
o Ducato_whe
v -0.638204 0.159278 1.422825
v -0.474032 0.218212 1.410478
v -0.473816 0.159278 1.418233
v -0.638421 0.218211 1.415069
v -0.637569 0.104360 1.445565
v -0.473180 0.104360 1.440973
v -0.636558 0.057201 1.481737
v -0.472169 0.057201 1.477145
v -0.635242 0.021014 1.528878
v -0.470853 0.021014 1.524287
v -0.633709 -0.001735 1.583774
v -0.469320 -0.001735 1.579183
v -0.632064 -0.009493 1.642685
v -0.467674 -0.009493 1.638094
v -0.630418 -0.001735 1.701597
v -0.466029 -0.001735 1.697006
v -0.628884 0.021014 1.756494
v -0.464495 0.021014 1.751902
v -0.627568 0.057200 1.803634
v -0.463178 0.057200 1.799043
v -0.626557 0.104360 1.839808
v -0.462167 0.104360 1.835216
v -0.625922 0.159277 1.862546
v -0.461533 0.159278 1.857954
v -0.625706 0.218211 1.870301
v -0.461315 0.218211 1.865710
v -0.625922 0.277146 1.862545
v -0.461532 0.277146 1.857954
v -0.626557 0.332064 1.839808
v -0.462168 0.332064 1.835216
v -0.627568 0.379223 1.803636
v -0.463178 0.379223 1.799043
v -0.628884 0.415410 1.756495
v -0.464495 0.415410 1.751902
v -0.630418 0.438158 1.701597
v -0.466029 0.438158 1.697006
v -0.632063 0.445917 1.642686
v -0.467674 0.445916 1.638095
v -0.633709 0.438158 1.583774
v -0.469320 0.438158 1.579183
v -0.635242 0.415410 1.528878
v -0.470853 0.415410 1.524287
v -0.636558 0.379224 1.481737
v -0.472170 0.379223 1.477145
v -0.637569 0.332064 1.445565
v -0.473180 0.332064 1.440973
v -0.638204 0.277146 1.422826
v -0.473815 0.277146 1.418234
v -0.650058 0.138251 1.450738
v -0.650455 0.245151 1.436537
v -0.648222 0.052776 1.516466
v -0.645439 0.011630 1.616109
v -0.642454 0.025836 1.722968
v -0.640067 0.091591 1.808409
v -0.638918 0.191272 1.849539
v -0.639315 0.298172 1.835339
v -0.641151 0.383647 1.769609
v -0.643934 0.424794 1.669967
v -0.646919 0.410588 1.563109
v -0.649306 0.344833 1.477667
v -0.667196 0.218211 1.643666
v 0.591191 0.159277 1.388485
v 0.426585 0.218212 1.385321
v 0.590975 0.218211 1.380730
v 0.426802 0.159278 1.393077
v 0.591826 0.104359 1.411225
v 0.427437 0.104359 1.415817
v 0.592837 0.057201 1.447397
v 0.428448 0.057201 1.451989
v 0.594154 0.021013 1.494537
v 0.429764 0.021013 1.499130
v 0.595688 -0.001735 1.549434
v 0.431298 -0.001735 1.554026
v 0.597333 -0.009493 1.608345
v 0.432943 -0.009493 1.612937
v 0.598979 -0.001735 1.667257
v 0.434589 -0.001735 1.671849
v 0.600511 0.021013 1.722154
v 0.436122 0.021013 1.726746
v 0.601829 0.057200 1.769295
v 0.437439 0.057200 1.773886
v 0.602839 0.104359 1.805467
v 0.438449 0.104359 1.810059
v 0.603474 0.159277 1.828206
v 0.439085 0.159278 1.832798
v 0.603691 0.218211 1.835962
v 0.439301 0.218211 1.840554
v 0.603474 0.277146 1.828205
v 0.439085 0.277146 1.832798
v 0.602839 0.332064 1.805467
v 0.438449 0.332064 1.810059
v 0.601829 0.379223 1.769295
v 0.437440 0.379223 1.773886
v 0.600512 0.415409 1.722155
v 0.436123 0.415409 1.726746
v 0.598979 0.438158 1.667257
v 0.434590 0.438158 1.671849
v 0.597333 0.445917 1.608346
v 0.432944 0.445916 1.612938
v 0.595688 0.438158 1.549434
v 0.431299 0.438158 1.554026
v 0.594154 0.415410 1.494538
v 0.429764 0.415409 1.499130
v 0.592837 0.379223 1.447397
v 0.428448 0.379223 1.451989
v 0.591826 0.332064 1.411225
v 0.427438 0.332064 1.415817
v 0.591191 0.277146 1.388486
v 0.426803 0.277146 1.393077
v 0.604585 0.138251 1.415692
v 0.604188 0.245151 1.401493
v 0.606421 0.052775 1.481421
v 0.609204 0.011630 1.581064
v 0.612189 0.025836 1.687923
v 0.614576 0.091591 1.773364
v 0.615724 0.191272 1.814494
v 0.615328 0.298172 1.800294
v 0.613492 0.383647 1.734564
v 0.610709 0.424794 1.634922
v 0.607724 0.410587 1.528064
v 0.605337 0.344833 1.442623
v 0.632465 0.218211 1.607364
vt 0.1673 0.9390
vt 0.1409 0.9915
vt 0.1673 0.9915
vt 0.1409 0.9390
vt 0.1936 0.9390
vt 0.1936 0.9915
vt 0.2197 0.9390
vt 0.2197 0.9915
vt 0.2461 0.9390
vt 0.2461 0.9915
vt 0.2724 0.9390
vt 0.2724 0.9915
vt 0.2985 0.9390
vt 0.2985 0.9915
vt 0.3249 0.9390
vt 0.3249 0.9915
vt 0.3513 0.9390
vt 0.3513 0.9915
vt 0.3776 0.9390
vt 0.3776 0.9915
vt 0.4037 0.9390
vt 0.4037 0.9915
vt 0.4301 0.9390
vt 0.4301 0.9915
vt 0.4564 0.9390
vt 0.4564 0.9915
vt 0.4825 0.9390
vt 0.4825 0.9915
vt 0.5089 0.9390
vt 0.5089 0.9915
vt 0.5355 0.9390
vt 0.5355 0.9915
vt 0.5618 0.9390
vt 0.5618 0.9915
vt 0.5879 0.9390
vt 0.5879 0.9915
vt 0.6143 0.9390
vt 0.6143 0.9915
vt 0.6406 0.9390
vt 0.6406 0.9915
vt 0.0355 0.9390
vt 0.0094 0.9915
vt 0.0355 0.9915
vt 0.0094 0.9390
vt 0.0619 0.9390
vt 0.0619 0.9915
vt 0.0882 0.9390
vt 0.0882 0.9915
vt 0.1146 0.9390
vt 0.1146 0.9915
vt 0.6093 0.2420
vt 0.7042 0.2420
vt 0.6956 0.2307
vt 0.6038 0.2552
vt 0.6625 0.8809
vt 0.6495 0.9107
vt 0.6523 0.8887
vt 0.6572 0.9207
vt 0.6608 0.8683
vt 0.6871 0.8490
vt 0.6742 0.8507
vt 0.6918 0.8372
vt 0.7242 0.8337
vt 0.7123 0.8288
vt 0.7343 0.8258
vt 0.7640 0.8390
vt 0.7562 0.8288
vt 0.7767 0.8372
vt 0.7959 0.8635
vt 0.7943 0.8507
vt 0.8078 0.8683
vt 0.8112 0.9006
vt 0.8162 0.8887
vt 0.8192 0.9107
vt 0.8060 0.9405
vt 0.8162 0.9326
vt 0.8078 0.9532
vt 0.7815 0.9723
vt 0.7943 0.9707
vt 0.7767 0.9842
vt 0.7443 0.9878
vt 0.7562 0.9927
vt 0.7343 0.9955
vt 0.7045 0.9824
vt 0.7123 0.9927
vt 0.6918 0.9842
vt 0.6726 0.9579
vt 0.6742 0.9707
vt 0.6608 0.9532
vt 0.6523 0.9326
vt 0.7343 0.9107
vt 0.6843 0.3168
vt 0.6568 0.3241
vt 0.6709 0.3223
vt 0.6426 0.3223
vt 0.6956 0.3081
vt 0.6294 0.3168
vt 0.7042 0.2968
vt 0.6181 0.3081
vt 0.7097 0.2835
vt 0.6093 0.2968
vt 0.7116 0.2694
vt 0.6038 0.2835
vt 0.7097 0.2552
vt 0.6020 0.2694
vt 0.6843 0.2219
vt 0.6181 0.2307
vt 0.6709 0.2164
vt 0.6294 0.2219
vt 0.6568 0.2145
vt 0.6426 0.2164
vt 0.1673 0.9390
vt 0.1409 0.9915
vt 0.1409 0.9390
vt 0.1673 0.9915
vt 0.1936 0.9390
vt 0.1936 0.9915
vt 0.2197 0.9390
vt 0.2197 0.9915
vt 0.2461 0.9390
vt 0.2461 0.9915
vt 0.2724 0.9390
vt 0.2724 0.9915
vt 0.2985 0.9390
vt 0.2985 0.9915
vt 0.3249 0.9390
vt 0.3249 0.9915
vt 0.3513 0.9390
vt 0.3513 0.9915
vt 0.3776 0.9390
vt 0.3776 0.9915
vt 0.4037 0.9390
vt 0.4037 0.9915
vt 0.4301 0.9390
vt 0.4301 0.9915
vt 0.4564 0.9390
vt 0.4564 0.9915
vt 0.4825 0.9390
vt 0.4825 0.9915
vt 0.5089 0.9390
vt 0.5089 0.9915
vt 0.5355 0.9390
vt 0.5355 0.9915
vt 0.5618 0.9390
vt 0.5618 0.9915
vt 0.5879 0.9390
vt 0.5879 0.9915
vt 0.6143 0.9390
vt 0.6143 0.9915
vt 0.6406 0.9390
vt 0.6406 0.9915
vt 0.0355 0.9390
vt 0.0094 0.9915
vt 0.0094 0.9390
vt 0.0355 0.9915
vt 0.0619 0.9390
vt 0.0619 0.9915
vt 0.0882 0.9390
vt 0.0882 0.9915
vt 0.1146 0.9390
vt 0.1146 0.9915
vt 0.6093 0.2420
vt 0.7042 0.2420
vt 0.6038 0.2552
vt 0.6956 0.2307
vt 0.6625 0.8809
vt 0.6495 0.9107
vt 0.6572 0.9207
vt 0.6523 0.8887
vt 0.6608 0.8683
vt 0.6871 0.8490
vt 0.6742 0.8507
vt 0.6918 0.8372
vt 0.7242 0.8337
vt 0.7123 0.8288
vt 0.7343 0.8258
vt 0.7640 0.8390
vt 0.7562 0.8288
vt 0.7767 0.8372
vt 0.7959 0.8635
vt 0.7943 0.8507
vt 0.8078 0.8683
vt 0.8112 0.9006
vt 0.8162 0.8887
vt 0.8192 0.9107
vt 0.8060 0.9405
vt 0.8162 0.9326
vt 0.8078 0.9532
vt 0.7815 0.9723
vt 0.7943 0.9707
vt 0.7767 0.9842
vt 0.7443 0.9878
vt 0.7562 0.9927
vt 0.7343 0.9955
vt 0.7045 0.9824
vt 0.7123 0.9927
vt 0.6918 0.9842
vt 0.6726 0.9579
vt 0.6742 0.9707
vt 0.6608 0.9532
vt 0.6523 0.9326
vt 0.7343 0.9107
vt 0.6843 0.3168
vt 0.6568 0.3241
vt 0.6426 0.3223
vt 0.6709 0.3223
vt 0.6956 0.3081
vt 0.6294 0.3168
vt 0.7042 0.2968
vt 0.6181 0.3081
vt 0.7097 0.2835
vt 0.6093 0.2968
vt 0.7116 0.2694
vt 0.6038 0.2835
vt 0.7097 0.2552
vt 0.6020 0.2694
vt 0.6843 0.2219
vt 0.6181 0.2307
vt 0.6709 0.2164
vt 0.6294 0.2219
vt 0.6568 0.2145
vt 0.6426 0.2164
vn -0.0277 -0.1305 -0.9911
vn -0.0258 -0.3827 -0.9235
vn -0.0222 -0.6088 -0.7930
vn -0.0170 -0.7934 -0.6085
vn -0.0107 -0.9239 -0.3826
vn -0.0036 -0.9914 -0.1305
vn 0.0036 -0.9914 0.1305
vn 0.0107 -0.9239 0.3826
vn 0.0107 -0.9239 0.3825
vn 0.0170 -0.7934 0.6085
vn 0.0222 -0.6088 0.7930
vn 0.0221 -0.6088 0.7930
vn 0.0258 -0.3827 0.9235
vn 0.0277 -0.1305 0.9911
vn 0.0277 0.1305 0.9911
vn 0.0258 0.3827 0.9235
vn 0.0222 0.6088 0.7930
vn 0.0170 0.7933 0.6085
vn 0.0107 0.9239 0.3825
vn 0.0036 0.9914 0.1305
vn -0.0036 0.9914 -0.1305
vn -0.0107 0.9239 -0.3826
vn -0.0107 0.9239 -0.3825
vn -0.0170 0.7934 -0.6085
vn -0.0222 0.6088 -0.7930
vn -0.0221 0.6088 -0.7931
vn -0.0258 0.3827 -0.9235
vn -0.0277 0.1305 -0.9911
vn 0.9996 0.0000 -0.0279
vn -0.9019 -0.0596 -0.4279
vn -0.9011 -0.0604 -0.4294
vn -0.8245 -0.2246 -0.5193
vn -0.8993 -0.2781 -0.3375
vn -0.8986 -0.2795 -0.3383
vn -0.8194 -0.4656 -0.3345
vn -0.8941 -0.4220 -0.1499
vn -0.8933 -0.4237 -0.1500
vn -0.8116 -0.5818 -0.0539
vn -0.8876 -0.4529 0.0844
vn -0.8867 -0.4543 0.0852
vn -0.8031 -0.5421 0.2471
vn -0.8815 -0.3624 0.3028
vn -0.8806 -0.3633 0.3042
vn -0.7964 -0.3572 0.4880
vn -0.8774 -0.1748 0.4467
vn -0.8766 -0.1749 0.4483
vn -0.7932 -0.0766 0.6041
vn -0.8766 0.0596 0.4776
vn -0.8757 0.0604 0.4790
vn -0.7943 0.2246 0.5645
vn -0.8791 0.2781 0.3871
vn -0.8783 0.2795 0.3879
vn -0.7995 0.4655 0.3797
vn -0.8843 0.4220 0.1996
vn -0.8836 0.4236 0.1996
vn -0.8073 0.5818 0.0992
vn -0.8909 0.4529 -0.0348
vn -0.8901 0.4543 -0.0355
vn -0.8157 0.5421 -0.2019
vn -0.8970 0.3624 -0.2532
vn -0.8962 0.3633 -0.2545
vn -0.8224 0.3572 -0.4428
vn -0.9010 0.1748 -0.3970
vn -0.9003 0.1749 -0.3987
vn -0.8257 0.0766 -0.5589
vn -0.9965 -0.0146 -0.0824
vn -0.9959 -0.0678 -0.0604
vn -0.9946 -0.1028 -0.0147
vn -0.9930 -0.1102 0.0424
vn -0.9915 -0.0881 0.0955
vn -0.9905 -0.0424 0.1305
vn -0.9903 0.0146 0.1379
vn -0.9909 0.0678 0.1159
vn -0.9922 0.1028 0.0702
vn -0.9938 0.1102 0.0131
vn -0.9953 0.0881 -0.0400
vn -0.9963 0.0424 -0.0750
vn -0.0170 -0.7933 -0.6085
vn -0.0107 -0.9239 -0.3825
vn 0.0221 0.6088 0.7930
vn 0.0170 0.7934 0.6085
vn 0.0107 0.9239 0.3826
vn -0.9996 0.0000 0.0279
vn 0.8757 -0.0604 -0.4790
vn 0.8766 -0.0596 -0.4776
vn 0.7943 -0.2246 -0.5646
vn 0.8783 -0.2795 -0.3880
vn 0.8791 -0.2781 -0.3871
vn 0.7994 -0.4656 -0.3797
vn 0.8835 -0.4237 -0.1996
vn 0.8843 -0.4220 -0.1996
vn 0.8073 -0.5818 -0.0992
vn 0.8901 -0.4543 0.0355
vn 0.8909 -0.4529 0.0348
vn 0.8157 -0.5421 0.2019
vn 0.8962 -0.3633 0.2546
vn 0.8970 -0.3624 0.2531
vn 0.8224 -0.3572 0.4428
vn 0.9003 -0.1749 0.3987
vn 0.9010 -0.1748 0.3971
vn 0.8257 -0.0766 0.5589
vn 0.9011 0.0604 0.4294
vn 0.9018 0.0596 0.4279
vn 0.8245 0.2246 0.5193
vn 0.8986 0.2795 0.3383
vn 0.8993 0.2781 0.3374
vn 0.8194 0.4655 0.3345
vn 0.8933 0.4236 0.1500
vn 0.8941 0.4220 0.1499
vn 0.8116 0.5818 0.0539
vn 0.8867 0.4543 -0.0852
vn 0.8876 0.4529 -0.0844
vn 0.8032 0.5421 -0.2471
vn 0.8806 0.3633 -0.3042
vn 0.8814 0.3624 -0.3028
vn 0.7964 0.3572 -0.4880
vn 0.8766 0.1749 -0.4483
vn 0.8774 0.1748 -0.4467
vn 0.7932 0.0766 -0.6042
vn 0.9903 -0.0146 -0.1379
vn 0.9909 -0.0678 -0.1159
vn 0.9922 -0.1028 -0.0702
vn 0.9938 -0.1102 -0.0131
vn 0.9953 -0.0881 0.0400
vn 0.9963 -0.0424 0.0750
vn 0.9965 0.0146 0.0824
vn 0.9959 0.0678 0.0604
vn 0.9946 0.1028 0.0147
vn 0.9930 0.1102 -0.0424
vn 0.9915 0.0881 -0.0955
vn 0.9905 0.0424 -0.1305
s off
f 1/1/1 2/2/1 3/3/1
f 1/1/1 4/4/1 2/2/1
f 5/5/2 3/3/2 6/6/2
f 5/5/2 1/1/2 3/3/2
f 7/7/3 6/6/3 8/8/3
f 7/7/3 5/5/3 6/6/3
f 9/9/4 8/8/4 10/10/4
f 9/9/4 7/7/4 8/8/4
f 11/11/5 10/10/5 12/12/5
f 11/11/5 9/9/5 10/10/5
f 13/13/6 12/12/6 14/14/6
f 13/13/6 11/11/6 12/12/6
f 15/15/7 14/14/7 16/16/7
f 15/15/7 13/13/7 14/14/7
f 17/17/8 16/16/8 18/18/8
f 17/17/9 15/15/9 16/16/9
f 19/19/10 18/18/10 20/20/10
f 19/19/10 17/17/10 18/18/10
f 21/21/11 20/20/11 22/22/11
f 21/21/12 19/19/12 20/20/12
f 23/23/13 22/22/13 24/24/13
f 23/23/13 21/21/13 22/22/13
f 25/25/14 24/24/14 26/26/14
f 25/25/14 23/23/14 24/24/14
f 27/27/15 26/26/15 28/28/15
f 27/27/15 25/25/15 26/26/15
f 29/29/16 28/28/16 30/30/16
f 29/29/16 27/27/16 28/28/16
f 31/31/17 30/30/17 32/32/17
f 31/31/17 29/29/17 30/30/17
f 33/33/18 32/32/18 34/34/18
f 33/33/18 31/31/18 32/32/18
f 35/35/19 34/34/19 36/36/19
f 35/35/19 33/33/19 34/34/19
f 37/37/20 36/36/20 38/38/20
f 37/37/20 35/35/20 36/36/20
f 39/39/21 38/38/21 40/40/21
f 39/39/21 37/37/21 38/38/21
f 41/41/22 40/42/22 42/43/22
f 41/41/23 39/44/23 40/42/23
f 43/45/24 42/43/24 44/46/24
f 43/45/24 41/41/24 42/43/24
f 45/47/25 44/46/25 46/48/25
f 45/47/26 43/45/26 44/46/26
f 47/49/27 46/48/27 48/50/27
f 47/49/27 45/47/27 46/48/27
f 4/4/28 48/50/28 2/2/28
f 4/4/28 47/49/28 48/50/28
f 6/51/29 22/52/29 20/53/29
f 6/51/29 3/54/29 22/52/29
f 49/55/30 4/56/30 1/57/30
f 49/55/31 50/58/31 4/56/31
f 1/57/32 5/59/32 49/55/32
f 51/60/33 5/59/33 7/61/33
f 51/60/34 49/55/34 5/59/34
f 7/61/35 9/62/35 51/60/35
f 52/63/36 9/62/36 11/64/36
f 52/63/37 51/60/37 9/62/37
f 11/64/38 13/65/38 52/63/38
f 53/66/39 13/65/39 15/67/39
f 53/66/40 52/63/40 13/65/40
f 15/67/41 17/68/41 53/66/41
f 54/69/42 17/68/42 19/70/42
f 54/69/43 53/66/43 17/68/43
f 19/70/44 21/71/44 54/69/44
f 55/72/45 21/71/45 23/73/45
f 55/72/46 54/69/46 21/71/46
f 23/73/47 25/74/47 55/72/47
f 56/75/48 25/74/48 27/76/48
f 56/75/49 55/72/49 25/74/49
f 27/76/50 29/77/50 56/75/50
f 57/78/51 29/77/51 31/79/51
f 57/78/52 56/75/52 29/77/52
f 31/79/53 33/80/53 57/78/53
f 58/81/54 33/80/54 35/82/54
f 58/81/55 57/78/55 33/80/55
f 35/82/56 37/83/56 58/81/56
f 59/84/57 37/83/57 39/85/57
f 59/84/58 58/81/58 37/83/58
f 39/85/59 41/86/59 59/84/59
f 60/87/60 41/86/60 43/88/60
f 60/87/61 59/84/61 41/86/61
f 43/88/62 45/89/62 60/87/62
f 50/58/63 45/89/63 47/90/63
f 50/58/64 60/87/64 45/89/64
f 47/90/65 4/56/65 50/58/65
f 50/58/66 49/55/66 61/91/66
f 49/55/67 51/60/67 61/91/67
f 51/60/68 52/63/68 61/91/68
f 52/63/69 53/66/69 61/91/69
f 53/66/70 54/69/70 61/91/70
f 54/69/71 55/72/71 61/91/71
f 55/72/72 56/75/72 61/91/72
f 56/75/73 57/78/73 61/91/73
f 57/78/74 58/81/74 61/91/74
f 58/81/75 59/84/75 61/91/75
f 59/84/76 60/87/76 61/91/76
f 60/87/77 50/58/77 61/91/77
f 34/92/29 38/93/29 36/94/29
f 34/92/29 40/95/29 38/93/29
f 32/96/29 40/95/29 34/92/29
f 32/96/29 42/97/29 40/95/29
f 30/98/29 42/97/29 32/96/29
f 30/98/29 44/99/29 42/97/29
f 28/100/29 44/99/29 30/98/29
f 28/100/29 46/101/29 44/99/29
f 26/102/29 46/101/29 28/100/29
f 26/102/29 48/103/29 46/101/29
f 24/104/29 48/103/29 26/102/29
f 24/104/29 2/105/29 48/103/29
f 22/52/29 2/105/29 24/104/29
f 22/52/29 3/54/29 2/105/29
f 6/51/29 18/106/29 8/107/29
f 6/51/29 20/53/29 18/106/29
f 8/107/29 16/108/29 10/109/29
f 8/107/29 18/106/29 16/108/29
f 10/109/29 14/110/29 12/111/29
f 10/109/29 16/108/29 14/110/29
f 62/112/1 63/113/1 64/114/1
f 62/112/1 65/115/1 63/113/1
f 66/116/2 65/115/2 62/112/2
f 66/116/2 67/117/2 65/115/2
f 68/118/3 67/117/3 66/116/3
f 68/118/3 69/119/3 67/117/3
f 70/120/78 69/119/78 68/118/78
f 70/120/78 71/121/78 69/119/78
f 72/122/79 71/121/79 70/120/79
f 72/122/79 73/123/79 71/121/79
f 74/124/6 73/123/6 72/122/6
f 74/124/6 75/125/6 73/123/6
f 76/126/7 75/125/7 74/124/7
f 76/126/7 77/127/7 75/125/7
f 78/128/9 77/127/9 76/126/9
f 78/128/9 79/129/9 77/127/9
f 80/130/10 79/129/10 78/128/10
f 80/130/10 81/131/10 79/129/10
f 82/132/11 81/131/11 80/130/11
f 82/132/11 83/133/11 81/131/11
f 84/134/13 83/133/13 82/132/13
f 84/134/13 85/135/13 83/133/13
f 86/136/14 85/135/14 84/134/14
f 86/136/14 87/137/14 85/135/14
f 88/138/15 87/137/15 86/136/15
f 88/138/15 89/139/15 87/137/15
f 90/140/16 89/139/16 88/138/16
f 90/140/16 91/141/16 89/139/16
f 92/142/17 91/141/17 90/140/17
f 92/142/80 93/143/80 91/141/80
f 94/144/81 93/143/81 92/142/81
f 94/144/81 95/145/81 93/143/81
f 96/146/19 95/145/19 94/144/19
f 96/146/82 97/147/82 95/145/82
f 98/148/20 97/147/20 96/146/20
f 98/148/20 99/149/20 97/147/20
f 100/150/21 99/149/21 98/148/21
f 100/150/21 101/151/21 99/149/21
f 102/152/23 101/153/23 100/154/23
f 102/152/22 103/155/22 101/153/22
f 104/156/24 103/155/24 102/152/24
f 104/156/24 105/157/24 103/155/24
f 106/158/25 105/157/25 104/156/25
f 106/158/25 107/159/25 105/157/25
f 108/160/27 107/159/27 106/158/27
f 108/160/27 109/161/27 107/159/27
f 64/114/28 109/161/28 108/160/28
f 64/114/28 63/113/28 109/161/28
f 67/162/83 83/163/83 65/164/83
f 67/162/83 81/165/83 83/163/83
f 110/166/84 64/167/84 111/168/84
f 110/166/85 62/169/85 64/167/85
f 62/169/86 110/166/86 66/170/86
f 112/171/87 66/170/87 110/166/87
f 112/171/88 68/172/88 66/170/88
f 68/172/89 112/171/89 70/173/89
f 113/174/90 70/173/90 112/171/90
f 113/174/91 72/175/91 70/173/91
f 72/175/92 113/174/92 74/176/92
f 114/177/93 74/176/93 113/174/93
f 114/177/94 76/178/94 74/176/94
f 76/178/95 114/177/95 78/179/95
f 115/180/96 78/179/96 114/177/96
f 115/180/97 80/181/97 78/179/97
f 80/181/98 115/180/98 82/182/98
f 116/183/99 82/182/99 115/180/99
f 116/183/100 84/184/100 82/182/100
f 84/184/101 116/183/101 86/185/101
f 117/186/102 86/185/102 116/183/102
f 117/186/103 88/187/103 86/185/103
f 88/187/104 117/186/104 90/188/104
f 118/189/105 90/188/105 117/186/105
f 118/189/106 92/190/106 90/188/106
f 92/190/107 118/189/107 94/191/107
f 119/192/108 94/191/108 118/189/108
f 119/192/109 96/193/109 94/191/109
f 96/193/110 119/192/110 98/194/110
f 120/195/111 98/194/111 119/192/111
f 120/195/112 100/196/112 98/194/112
f 100/196/113 120/195/113 102/197/113
f 121/198/114 102/197/114 120/195/114
f 121/198/115 104/199/115 102/197/115
f 104/199/116 121/198/116 106/200/116
f 111/168/117 106/200/117 121/198/117
f 111/168/118 108/201/118 106/200/118
f 108/201/119 111/168/119 64/167/119
f 111/168/120 122/202/120 110/166/120
f 110/166/121 122/202/121 112/171/121
f 112/171/122 122/202/122 113/174/122
f 113/174/123 122/202/123 114/177/123
f 114/177/124 122/202/124 115/180/124
f 115/180/125 122/202/125 116/183/125
f 116/183/126 122/202/126 117/186/126
f 117/186/127 122/202/127 118/189/127
f 118/189/128 122/202/128 119/192/128
f 119/192/129 122/202/129 120/195/129
f 120/195/130 122/202/130 121/198/130
f 121/198/131 122/202/131 111/168/131
f 95/203/83 99/204/83 101/205/83
f 95/203/83 97/206/83 99/204/83
f 93/207/83 101/205/83 103/208/83
f 93/207/83 95/203/83 101/205/83
f 91/209/83 103/208/83 105/210/83
f 91/209/83 93/207/83 103/208/83
f 89/211/83 105/210/83 107/212/83
f 89/211/83 91/209/83 105/210/83
f 87/213/83 107/212/83 109/214/83
f 87/213/83 89/211/83 107/212/83
f 85/215/83 109/214/83 63/216/83
f 85/215/83 87/213/83 109/214/83
f 83/163/83 63/216/83 65/164/83
f 83/163/83 85/215/83 63/216/83
f 67/162/83 79/217/83 81/165/83
f 67/162/83 69/218/83 79/217/83
f 69/218/83 77/219/83 79/217/83
f 69/218/83 71/220/83 77/219/83
f 71/220/83 75/221/83 77/219/83
f 71/220/83 73/222/83 75/221/83
