# Blender v2.78 (sub 0) OBJ File: ''
# www.blender.org
mtllib lamp.mtl
o Plane01.001
v -0.024710 1.522905 -0.112808
v -0.043509 1.522905 -0.109493
v -0.041840 1.524726 -0.104908
v -0.024710 1.524726 -0.107929
v -0.060041 1.522905 -0.099949
v -0.056904 1.524726 -0.096211
v -0.072311 1.522905 -0.085326
v -0.068085 1.524726 -0.082886
v -0.078840 1.522905 -0.067388
v -0.074034 1.524726 -0.066541
v -0.078840 1.522905 -0.048299
v -0.074034 1.524726 -0.049146
v -0.072311 1.522905 -0.030361
v -0.068085 1.524726 -0.032801
v -0.060041 1.522905 -0.015738
v -0.056904 1.524726 -0.019476
v -0.043509 1.522905 -0.006194
v -0.041840 1.524726 -0.010779
v -0.024710 1.522905 -0.002879
v -0.024710 1.524726 -0.007759
v -0.005911 1.522905 -0.006194
v -0.007580 1.524726 -0.010779
v 0.010620 1.522905 -0.015738
v 0.007484 1.524726 -0.019476
v 0.022890 1.522905 -0.030361
v 0.018664 1.524726 -0.032801
v 0.029419 1.522905 -0.048299
v 0.024614 1.524726 -0.049146
v 0.029419 1.522905 -0.067388
v 0.024614 1.524726 -0.066541
v 0.022890 1.522905 -0.085326
v 0.018664 1.524726 -0.082886
v 0.010620 1.522905 -0.099949
v 0.007484 1.524726 -0.096211
v -0.005911 1.522905 -0.109493
v -0.007580 1.524726 -0.104908
v -0.024710 1.495235 -0.113887
v -0.043878 1.495235 -0.110507
v -0.043878 1.522503 -0.110507
v -0.024710 1.522503 -0.113887
v -0.060735 1.495235 -0.100776
v -0.060735 1.522503 -0.100776
v -0.073246 1.495235 -0.085865
v -0.073246 1.522503 -0.085865
v -0.079903 1.495235 -0.067575
v -0.079903 1.522503 -0.067575
v -0.079903 1.495235 -0.048112
v -0.079903 1.522503 -0.048112
v -0.073246 1.495235 -0.029822
v -0.073246 1.522503 -0.029822
v -0.060734 1.495235 -0.014912
v -0.060734 1.522503 -0.014912
v -0.043878 1.495235 -0.005180
v -0.043878 1.522503 -0.005180
v -0.024710 1.495235 -0.001800
v -0.024710 1.522503 -0.001800
v -0.005542 1.495235 -0.005180
v -0.005542 1.522503 -0.005180
v 0.011314 1.495235 -0.014912
v 0.011314 1.522503 -0.014912
v 0.023825 1.495235 -0.029822
v 0.023825 1.522503 -0.029822
v 0.030482 1.495235 -0.048112
v 0.030482 1.522503 -0.048112
v 0.030482 1.495235 -0.067575
v 0.030482 1.522503 -0.067575
v 0.023825 1.495235 -0.085865
v 0.023825 1.522503 -0.085865
v 0.011314 1.495235 -0.100776
v 0.011314 1.522503 -0.100776
v -0.005542 1.495235 -0.110507
v -0.005542 1.522503 -0.110507
v -0.041471 1.525128 -0.103894
v -0.024710 1.525128 -0.106849
v -0.056211 1.525128 -0.095384
v -0.067151 1.525128 -0.082347
v -0.072972 1.525128 -0.066353
v -0.072972 1.525128 -0.049334
v -0.067151 1.525128 -0.033341
v -0.056211 1.525128 -0.020303
v -0.041471 1.525128 -0.011793
v -0.024710 1.525128 -0.008838
v -0.007949 1.525128 -0.011793
v 0.006790 1.525128 -0.020303
v 0.017730 1.525128 -0.033341
v 0.023551 1.525128 -0.049334
v 0.023551 1.525128 -0.066353
v 0.017730 1.525128 -0.082346
v 0.006790 1.525128 -0.095384
v -0.007949 1.525128 -0.103894
v -0.034260 1.622249 -0.084081
v -0.042658 1.622249 -0.079233
v -0.048891 1.622249 -0.071804
v -0.052208 1.622249 -0.062692
v -0.052208 1.622249 -0.052995
v -0.048891 1.622249 -0.043883
v -0.042658 1.622249 -0.036455
v -0.034260 1.622249 -0.031606
v -0.024710 1.622249 -0.029922
v -0.015161 1.622249 -0.031606
v -0.006763 1.622249 -0.036455
v -0.000530 1.622249 -0.043883
v 0.002787 1.622249 -0.052995
v 0.002787 1.622249 -0.062692
v -0.000530 1.622249 -0.071804
v -0.006763 1.622249 -0.079233
v -0.015161 1.622249 -0.084081
v -0.024710 1.622249 -0.085765
v -0.038368 1.620893 -0.095368
v -0.024710 1.620893 -0.097776
v -0.024710 1.616591 -0.102547
v -0.040000 1.616591 -0.099851
v -0.050378 1.620893 -0.088434
v -0.053445 1.616591 -0.092089
v -0.059293 1.620893 -0.077810
v -0.063425 1.616591 -0.080195
v -0.064036 1.620893 -0.064778
v -0.068735 1.616591 -0.065606
v -0.064036 1.620893 -0.050909
v -0.068735 1.616591 -0.050081
v -0.059293 1.620893 -0.037877
v -0.063425 1.616591 -0.035492
v -0.050378 1.620893 -0.027254
v -0.053445 1.616591 -0.023599
v -0.038368 1.620893 -0.020320
v -0.040000 1.616591 -0.015836
v -0.024710 1.620893 -0.017911
v -0.024710 1.616591 -0.013140
v -0.011053 1.620893 -0.020320
v -0.009421 1.616591 -0.015836
v 0.000958 1.620893 -0.027254
v 0.004025 1.616591 -0.023599
v 0.009872 1.620893 -0.037877
v 0.014004 1.616591 -0.035492
v 0.014615 1.620893 -0.050909
v 0.019314 1.616591 -0.050081
v 0.014615 1.620893 -0.064778
v 0.019314 1.616591 -0.065606
v 0.009872 1.620893 -0.077810
v 0.014004 1.616591 -0.080195
v 0.000958 1.620893 -0.088433
v 0.004025 1.616591 -0.092089
v -0.011053 1.620893 -0.095368
v -0.009421 1.616591 -0.099851
v -0.041046 1.609265 -0.102726
v -0.024710 1.609265 -0.105606
v -0.055412 1.609265 -0.094432
v -0.066074 1.609265 -0.081725
v -0.071747 1.609265 -0.066138
v -0.071747 1.609265 -0.049550
v -0.066074 1.609265 -0.033962
v -0.055412 1.609265 -0.021255
v -0.041046 1.609265 -0.012961
v -0.024710 1.609265 -0.010081
v -0.008375 1.609265 -0.012961
v 0.005991 1.609265 -0.021255
v 0.016653 1.609265 -0.033962
v 0.022327 1.609265 -0.049550
v 0.022327 1.609265 -0.066137
v 0.016653 1.609265 -0.081725
v 0.005991 1.609265 -0.094432
v -0.008375 1.609265 -0.102726
vt 0.6060 0.9168
vt 0.6001 0.9146
vt 0.5953 0.9106
vt 0.5922 0.9051
vt 0.5911 0.8989
vt 0.5922 0.8927
vt 0.5953 0.8872
vt 0.6000 0.8832
vt 0.6059 0.8810
vt 0.6121 0.8810
vt 0.6180 0.8832
vt 0.6227 0.8873
vt 0.6259 0.8928
vt 0.6270 0.8990
vt 0.6259 0.9052
vt 0.6228 0.9106
vt 0.6180 0.9147
vt 0.6122 0.9168
vt 0.5324 0.8733
vt 0.5233 0.8733
vt 0.5233 0.8714
vt 0.5324 0.8714
vt 0.5415 0.8733
vt 0.5415 0.8714
vt 0.5505 0.8733
vt 0.5505 0.8714
vt 0.5594 0.8733
vt 0.5594 0.8714
vt 0.5683 0.8733
vt 0.5683 0.8714
vt 0.5773 0.8733
vt 0.5773 0.8714
vt 0.5863 0.8733
vt 0.5863 0.8714
vt 0.5953 0.8733
vt 0.5953 0.8714
vt 0.6045 0.8733
vt 0.6045 0.8714
vt 0.6136 0.8733
vt 0.6136 0.8714
vt 0.6227 0.8733
vt 0.6227 0.8714
vt 0.6317 0.8733
vt 0.6317 0.8714
vt 0.6407 0.8733
vt 0.6407 0.8714
vt 0.6496 0.8733
vt 0.6496 0.8714
vt 0.6585 0.8733
vt 0.6585 0.8714
vt 0.6675 0.8733
vt 0.6675 0.8714
vt 0.6766 0.8733
vt 0.6766 0.8714
vt 0.6857 0.8733
vt 0.6857 0.8714
vt 0.5324 0.8680
vt 0.5233 0.8680
vt 0.5233 0.8298
vt 0.5324 0.8298
vt 0.5415 0.8680
vt 0.5415 0.8298
vt 0.5505 0.8680
vt 0.5505 0.8298
vt 0.5594 0.8680
vt 0.5594 0.8298
vt 0.5683 0.8680
vt 0.5683 0.8298
vt 0.5773 0.8680
vt 0.5773 0.8298
vt 0.5863 0.8680
vt 0.5863 0.8298
vt 0.5953 0.8680
vt 0.5953 0.8298
vt 0.6045 0.8680
vt 0.6045 0.8298
vt 0.6136 0.8680
vt 0.6136 0.8298
vt 0.6227 0.8680
vt 0.6227 0.8298
vt 0.6317 0.8680
vt 0.6317 0.8298
vt 0.6407 0.8680
vt 0.6407 0.8298
vt 0.6496 0.8680
vt 0.6496 0.8298
vt 0.6585 0.8680
vt 0.6585 0.8298
vt 0.6675 0.8680
vt 0.6675 0.8298
vt 0.6766 0.8680
vt 0.6766 0.8298
vt 0.6857 0.8680
vt 0.6857 0.8298
vt 0.6136 0.9245
vt 0.6047 0.9245
vt 0.5963 0.9214
vt 0.5894 0.9156
vt 0.5850 0.9078
vt 0.5834 0.8989
vt 0.5849 0.8900
vt 0.5894 0.8822
vt 0.5962 0.8764
vt 0.6218 0.8764
vt 0.6286 0.8823
vt 0.6331 0.8901
vt 0.6347 0.8990
vt 0.6331 0.9079
vt 0.6287 0.9157
vt 0.6219 0.9215
vt 0.5233 0.8288
vt 0.5324 0.8288
vt 0.5324 0.8296
vt 0.5233 0.8296
vt 0.5415 0.8288
vt 0.5415 0.8296
vt 0.5505 0.8288
vt 0.5505 0.8296
vt 0.5594 0.8288
vt 0.5594 0.8296
vt 0.5683 0.8288
vt 0.5683 0.8296
vt 0.5773 0.8288
vt 0.5773 0.8296
vt 0.5863 0.8288
vt 0.5863 0.8296
vt 0.5953 0.8288
vt 0.5953 0.8296
vt 0.6045 0.8288
vt 0.6045 0.8296
vt 0.6136 0.8288
vt 0.6136 0.8296
vt 0.6227 0.8288
vt 0.6227 0.8296
vt 0.6317 0.8288
vt 0.6317 0.8296
vt 0.6407 0.8288
vt 0.6407 0.8296
vt 0.6496 0.8288
vt 0.6496 0.8296
vt 0.6585 0.8288
vt 0.6585 0.8296
vt 0.6675 0.8288
vt 0.6675 0.8296
vt 0.6766 0.8288
vt 0.6766 0.8296
vt 0.6857 0.8288
vt 0.6857 0.8296
vt 0.5233 0.8162
vt 0.5324 0.8162
vt 0.5324 0.8286
vt 0.5233 0.8286
vt 0.5415 0.8162
vt 0.5415 0.8286
vt 0.5505 0.8162
vt 0.5505 0.8286
vt 0.5594 0.8162
vt 0.5594 0.8286
vt 0.5683 0.8162
vt 0.5683 0.8286
vt 0.5773 0.8162
vt 0.5773 0.8286
vt 0.5863 0.8162
vt 0.5863 0.8286
vt 0.5953 0.8162
vt 0.5953 0.8286
vt 0.6045 0.8162
vt 0.6045 0.8286
vt 0.6136 0.8162
vt 0.6136 0.8286
vt 0.6227 0.8162
vt 0.6227 0.8286
vt 0.6317 0.8162
vt 0.6317 0.8286
vt 0.6407 0.8162
vt 0.6407 0.8286
vt 0.6496 0.8162
vt 0.6496 0.8286
vt 0.6585 0.8162
vt 0.6585 0.8286
vt 0.6675 0.8162
vt 0.6675 0.8286
vt 0.6766 0.8162
vt 0.6766 0.8286
vt 0.6857 0.8162
vt 0.6857 0.8286
vn -0.0213 0.9981 -0.0586
vn -0.0401 0.9981 -0.0478
vn -0.0540 0.9981 -0.0312
vn -0.0615 0.9981 -0.0108
vn -0.0615 0.9981 0.0108
vn -0.0540 0.9981 0.0312
vn -0.0401 0.9981 0.0478
vn -0.0213 0.9981 0.0586
vn -0.0000 0.9981 0.0624
vn 0.0213 0.9981 0.0586
vn 0.0401 0.9981 0.0478
vn 0.0540 0.9981 0.0312
vn 0.0615 0.9981 0.0108
vn 0.0615 0.9981 -0.0108
vn 0.0540 0.9981 -0.0312
vn 0.0401 0.9980 -0.0478
vn 0.0213 0.9981 -0.0586
vn 0.0000 0.9981 -0.0623
vn -0.1498 0.8990 -0.4116
vn 0.0000 0.8990 -0.4380
vn 0.0000 0.5669 -0.8238
vn -0.2818 0.5669 -0.7741
vn -0.2815 0.8990 -0.3355
vn -0.5295 0.5669 -0.6311
vn -0.3793 0.8990 -0.2190
vn -0.7135 0.5669 -0.4119
vn -0.4313 0.8990 -0.0761
vn -0.8113 0.5668 -0.1430
vn -0.4313 0.8990 0.0761
vn -0.8113 0.5668 0.1431
vn -0.3793 0.8990 0.2190
vn -0.7134 0.5668 0.4119
vn -0.2815 0.8990 0.3355
vn -0.5295 0.5669 0.6310
vn -0.1498 0.8990 0.4116
vn -0.2818 0.5669 0.7741
vn 0.0000 0.8990 0.4380
vn 0.0000 0.5669 0.8238
vn 0.1498 0.8990 0.4116
vn 0.2817 0.5669 0.7741
vn 0.2815 0.8990 0.3355
vn 0.5295 0.5669 0.6311
vn 0.3793 0.8990 0.2190
vn 0.7135 0.5669 0.4119
vn 0.4313 0.8990 0.0761
vn 0.8113 0.5669 0.1431
vn 0.4313 0.8990 -0.0761
vn 0.8113 0.5669 -0.1431
vn 0.3793 0.8990 -0.2190
vn 0.7135 0.5669 -0.4119
vn 0.2815 0.8990 -0.3355
vn 0.5295 0.5669 -0.6311
vn 0.1498 0.8990 -0.4116
vn 0.2818 0.5669 -0.7741
vn -0.3351 0.1997 -0.9208
vn 0.0000 0.1997 -0.9799
vn 0.0000 0.6076 -0.7942
vn -0.2716 0.6076 -0.7464
vn -0.6298 0.1997 -0.7506
vn -0.5104 0.6079 -0.6083
vn -0.8486 0.1997 -0.4899
vn -0.6877 0.6078 -0.3970
vn -0.9650 0.1997 -0.1701
vn -0.7820 0.6078 -0.1379
vn -0.9650 0.1996 0.1701
vn -0.7820 0.6078 0.1379
vn -0.8486 0.1997 0.4899
vn -0.6877 0.6079 0.3970
vn -0.6298 0.1997 0.7506
vn -0.5106 0.6075 0.6085
vn -0.3351 0.1997 0.9208
vn -0.2716 0.6079 0.7461
vn 0.0000 0.1997 0.9799
vn 0.0000 0.6078 0.7941
vn 0.3351 0.1997 0.9208
vn 0.2716 0.6079 0.7462
vn 0.6298 0.1997 0.7506
vn 0.5105 0.6076 0.6084
vn 0.8486 0.1997 0.4899
vn 0.6878 0.6076 0.3971
vn 0.9650 0.1997 0.1702
vn 0.7821 0.6077 0.1379
vn 0.9650 0.1997 -0.1702
vn 0.7819 0.6080 -0.1378
vn 0.8486 0.1997 -0.4899
vn 0.6877 0.6079 -0.3970
vn 0.6298 0.1997 -0.7506
vn 0.5105 0.6077 -0.6083
vn 0.3351 0.1997 -0.9208
vn 0.2716 0.6079 -0.7462
vn -0.0000 0.9370 -0.3494
vn -0.1195 0.9370 -0.3282
vn -0.1195 0.9370 -0.3284
vn 0.0000 0.9370 -0.3493
vn -0.2248 0.9369 -0.2679
vn -0.2246 0.9370 -0.2677
vn -0.3025 0.9370 -0.1747
vn -0.3027 0.9369 -0.1747
vn -0.3440 0.9370 -0.0607
vn -0.3441 0.9370 -0.0607
vn -0.3440 0.9370 0.0607
vn -0.3445 0.9368 0.0607
vn -0.3025 0.9370 0.1747
vn -0.3026 0.9370 0.1747
vn -0.2246 0.9370 0.2677
vn -0.1195 0.9370 0.3283
vn -0.0000 0.9370 0.3493
vn -0.0000 0.9370 0.3494
vn 0.1195 0.9370 0.3282
vn 0.1195 0.9370 0.3284
vn 0.2246 0.9370 0.2677
vn 0.2248 0.9368 0.2680
vn 0.3025 0.9370 0.1747
vn 0.3026 0.9370 0.1747
vn 0.3440 0.9370 0.0607
vn 0.3440 0.9370 -0.0607
vn 0.3025 0.9370 -0.1747
vn 0.3026 0.9370 -0.1747
vn 0.2245 0.9370 -0.2675
vn 0.2248 0.9368 -0.2680
vn 0.1195 0.9370 -0.3283
vn 0.1195 0.9370 -0.3284
vn 0.0000 0.0000 -1.0000
vn -0.3420 0.0000 -0.9397
vn -0.2873 0.5427 -0.7893
vn 0.0000 0.5427 -0.8399
vn -0.6428 0.0000 -0.7661
vn -0.5399 0.5427 -0.6434
vn -0.8660 0.0000 -0.5000
vn -0.7274 0.5427 -0.4199
vn -0.9848 0.0000 -0.1736
vn -0.8272 0.5427 -0.1459
vn -0.9848 0.0000 0.1736
vn -0.8273 0.5424 0.1459
vn -0.8660 -0.0000 0.5000
vn -0.7274 0.5427 0.4200
vn -0.6428 -0.0000 0.7661
vn -0.5399 0.5426 0.6435
vn -0.3420 -0.0000 0.9397
vn -0.2873 0.5427 0.7893
vn -0.0000 -0.0000 1.0000
vn -0.0000 0.5427 0.8399
vn 0.3420 -0.0000 0.9397
vn 0.2873 0.5427 0.7892
vn 0.6428 -0.0000 0.7660
vn 0.5399 0.5426 0.6435
vn 0.8660 -0.0000 0.5000
vn 0.7274 0.5427 0.4200
vn 0.9848 0.0000 0.1736
vn 0.8273 0.5424 0.1459
vn 0.9848 0.0000 -0.1736
vn 0.8274 0.5423 -0.1459
vn 0.8660 0.0000 -0.5000
vn 0.7274 0.5427 -0.4199
vn 0.6428 0.0000 -0.7660
vn 0.5399 0.5428 -0.6434
vn 0.3420 0.0000 -0.9397
vn 0.2873 0.5427 -0.7893
usemtl 02___Default33.003
s 1
f 91/1/1 92/2/2 93/3/3
f 93/3/3 94/4/4 95/5/5
f 95/5/5 96/6/6 97/7/7
f 93/3/3 95/5/5 97/7/7
f 97/7/7 98/8/8 99/9/9
f 99/9/9 100/10/10 101/11/11
f 97/7/7 99/9/9 101/11/11
f 101/11/11 102/12/12 103/13/13
f 103/13/13 104/14/14 105/15/15
f 101/11/11 103/13/13 105/15/15
f 97/7/7 101/11/11 105/15/15
f 93/3/3 97/7/7 105/15/15
f 105/15/15 106/16/16 107/17/17
f 93/3/3 105/15/15 107/17/17
f 91/1/1 93/3/3 107/17/17
f 108/18/18 91/1/1 107/17/17
f 109/19/19 110/20/20 111/21/21
f 111/21/21 112/22/22 109/19/19
f 113/23/23 109/19/19 112/22/22
f 112/22/22 114/24/24 113/23/23
f 115/25/25 113/23/23 114/24/24
f 114/24/24 116/26/26 115/25/25
f 117/27/27 115/25/25 116/26/26
f 116/26/26 118/28/28 117/27/27
f 119/29/29 117/27/27 118/28/28
f 118/28/28 120/30/30 119/29/29
f 121/31/31 119/29/29 120/30/30
f 120/30/30 122/32/32 121/31/31
f 123/33/33 121/31/31 122/32/32
f 122/32/32 124/34/34 123/33/33
f 125/35/35 123/33/33 124/34/34
f 124/34/34 126/36/36 125/35/35
f 127/37/37 125/35/35 126/36/36
f 126/36/36 128/38/38 127/37/37
f 129/39/39 127/37/37 128/38/38
f 128/38/38 130/40/40 129/39/39
f 131/41/41 129/39/39 130/40/40
f 130/40/40 132/42/42 131/41/41
f 133/43/43 131/41/41 132/42/42
f 132/42/42 134/44/44 133/43/43
f 135/45/45 133/43/43 134/44/44
f 134/44/44 136/46/46 135/45/45
f 137/47/47 135/45/45 136/46/46
f 136/46/46 138/48/48 137/47/47
f 139/49/49 137/47/47 138/48/48
f 138/48/48 140/50/50 139/49/49
f 141/51/51 139/49/49 140/50/50
f 140/50/50 142/52/52 141/51/51
f 143/53/53 141/51/51 142/52/52
f 142/52/52 144/54/54 143/53/53
f 110/55/20 143/53/53 144/54/54
f 144/54/54 111/56/21 110/55/20
f 145/57/55 146/58/56 74/59/57
f 74/59/57 73/60/58 145/57/55
f 147/61/59 145/57/55 73/60/58
f 73/60/58 75/62/60 147/61/59
f 148/63/61 147/61/59 75/62/60
f 75/62/60 76/64/62 148/63/61
f 149/65/63 148/63/61 76/64/62
f 76/64/62 77/66/64 149/65/63
f 150/67/65 149/65/63 77/66/64
f 77/66/64 78/68/66 150/67/65
f 151/69/67 150/67/65 78/68/66
f 78/68/66 79/70/68 151/69/67
f 152/71/69 151/69/67 79/70/68
f 79/70/68 80/72/70 152/71/69
f 153/73/71 152/71/69 80/72/70
f 80/72/70 81/74/72 153/73/71
f 154/75/73 153/73/71 81/74/72
f 81/74/72 82/76/74 154/75/73
f 155/77/75 154/75/73 82/76/74
f 82/76/74 83/78/76 155/77/75
f 156/79/77 155/77/75 83/78/76
f 83/78/76 84/80/78 156/79/77
f 157/81/79 156/79/77 84/80/78
f 84/80/78 85/82/80 157/81/79
f 158/83/81 157/81/79 85/82/80
f 85/82/80 86/84/82 158/83/81
f 159/85/83 158/83/81 86/84/82
f 86/84/82 87/86/84 159/85/83
f 160/87/85 159/85/83 87/86/84
f 87/86/84 88/88/86 160/87/85
f 161/89/87 160/87/85 88/88/86
f 88/88/86 89/90/88 161/89/87
f 162/91/89 161/89/87 89/90/88
f 89/90/88 90/92/90 162/91/89
f 146/93/56 162/91/89 90/92/90
f 90/92/90 74/94/57 146/93/56
f 112/22/22 111/21/21 146/58/56
f 146/58/56 145/57/55 112/22/22
f 114/24/24 112/22/22 145/57/55
f 145/57/55 147/61/59 114/24/24
f 116/26/26 114/24/24 147/61/59
f 147/61/59 148/63/61 116/26/26
f 118/28/28 116/26/26 148/63/61
f 148/63/61 149/65/63 118/28/28
f 120/30/30 118/28/28 149/65/63
f 149/65/63 150/67/65 120/30/30
f 122/32/32 120/30/30 150/67/65
f 150/67/65 151/69/67 122/32/32
f 124/34/34 122/32/32 151/69/67
f 151/69/67 152/71/69 124/34/34
f 126/36/36 124/34/34 152/71/69
f 152/71/69 153/73/71 126/36/36
f 128/38/38 126/36/36 153/73/71
f 153/73/71 154/75/73 128/38/38
f 130/40/40 128/38/38 154/75/73
f 154/75/73 155/77/75 130/40/40
f 132/42/42 130/40/40 155/77/75
f 155/77/75 156/79/77 132/42/42
f 134/44/44 132/42/42 156/79/77
f 156/79/77 157/81/79 134/44/44
f 136/46/46 134/44/44 157/81/79
f 157/81/79 158/83/81 136/46/46
f 138/48/48 136/46/46 158/83/81
f 158/83/81 159/85/83 138/48/48
f 140/50/50 138/48/48 159/85/83
f 159/85/83 160/87/85 140/50/50
f 142/52/52 140/50/50 160/87/85
f 160/87/85 161/89/87 142/52/52
f 144/54/54 142/52/52 161/89/87
f 161/89/87 162/91/89 144/54/54
f 111/56/21 144/54/54 162/91/89
f 162/91/89 146/93/56 111/56/21
f 110/95/20 109/96/19 91/1/1
f 91/1/1 108/18/18 110/95/20
f 109/96/19 113/97/23 92/2/2
f 92/2/2 91/1/1 109/96/19
f 113/97/23 115/98/25 93/3/3
f 93/3/3 92/2/2 113/97/23
f 115/98/25 117/99/27 94/4/4
f 94/4/4 93/3/3 115/98/25
f 117/99/27 119/100/29 95/5/5
f 95/5/5 94/4/4 117/99/27
f 119/100/29 121/101/31 96/6/6
f 96/6/6 95/5/5 119/100/29
f 121/101/31 123/102/33 97/7/7
f 97/7/7 96/6/6 121/101/31
f 123/102/33 125/103/35 98/8/8
f 98/8/8 97/7/7 123/102/33
f 125/103/35 127/37/37 99/9/9
f 99/9/9 98/8/8 125/103/35
f 127/37/37 129/39/39 100/10/10
f 100/10/10 99/9/9 127/37/37
f 129/39/39 131/104/41 101/11/11
f 101/11/11 100/10/10 129/39/39
f 131/104/41 133/105/43 102/12/12
f 102/12/12 101/11/11 131/104/41
f 133/105/43 135/106/45 103/13/13
f 103/13/13 102/12/12 133/105/43
f 135/106/45 137/107/47 104/14/14
f 104/14/14 103/13/13 135/106/45
f 137/107/47 139/108/49 105/15/15
f 105/15/15 104/14/14 137/107/47
f 139/108/49 141/109/51 106/16/16
f 106/16/16 105/15/15 139/108/49
f 143/110/53 107/17/17 106/16/16
f 106/16/16 141/109/51 143/110/53
f 143/110/53 110/95/20 108/18/18
f 108/18/18 107/17/17 143/110/53
usemtl 02___Default.003
f 1/111/91 2/112/92 3/113/93
f 3/113/93 4/114/94 1/111/91
f 2/112/92 5/115/95 6/116/96
f 6/116/96 3/113/93 2/112/92
f 5/115/95 7/117/97 8/118/98
f 8/118/98 6/116/96 5/115/95
f 7/117/97 9/119/99 10/120/100
f 10/120/100 8/118/98 7/117/97
f 9/119/99 11/121/101 12/122/102
f 12/122/102 10/120/100 9/119/99
f 11/121/101 13/123/103 14/124/104
f 14/124/104 12/122/102 11/121/101
f 13/123/103 15/125/105 16/126/105
f 16/126/105 14/124/104 13/123/103
f 15/125/105 17/127/106 18/128/106
f 18/128/106 16/126/105 15/125/105
f 17/127/106 19/129/107 20/130/108
f 20/130/108 18/128/106 17/127/106
f 19/129/107 21/131/109 22/132/110
f 22/132/110 20/130/108 19/129/107
f 21/131/109 23/133/111 24/134/112
f 24/134/112 22/132/110 21/131/109
f 23/133/111 25/135/113 26/136/114
f 26/136/114 24/134/112 23/133/111
f 25/135/113 27/137/115 28/138/115
f 28/138/115 26/136/114 25/135/113
f 27/137/115 29/139/116 30/140/116
f 30/140/116 28/138/115 27/137/115
f 29/139/116 31/141/117 32/142/118
f 32/142/118 30/140/116 29/139/116
f 31/141/117 33/143/119 34/144/120
f 34/144/120 32/142/118 31/141/117
f 33/143/119 35/145/121 36/146/122
f 36/146/122 34/144/120 33/143/119
f 35/145/121 1/147/91 4/148/94
f 4/148/94 36/146/122 35/145/121
f 37/149/123 38/150/124 39/151/125
f 39/151/125 40/152/126 37/149/123
f 38/150/124 41/153/127 42/154/128
f 42/154/128 39/151/125 38/150/124
f 41/153/127 43/155/129 44/156/130
f 44/156/130 42/154/128 41/153/127
f 43/155/129 45/157/131 46/158/132
f 46/158/132 44/156/130 43/155/129
f 45/157/131 47/159/133 48/160/134
f 48/160/134 46/158/132 45/157/131
f 47/159/133 49/161/135 50/162/136
f 50/162/136 48/160/134 47/159/133
f 49/161/135 51/163/137 52/164/138
f 52/164/138 50/162/136 49/161/135
f 51/163/137 53/165/139 54/166/140
f 54/166/140 52/164/138 51/163/137
f 53/165/139 55/167/141 56/168/142
f 56/168/142 54/166/140 53/165/139
f 55/167/141 57/169/143 58/170/144
f 58/170/144 56/168/142 55/167/141
f 57/169/143 59/171/145 60/172/146
f 60/172/146 58/170/144 57/169/143
f 59/171/145 61/173/147 62/174/148
f 62/174/148 60/172/146 59/171/145
f 61/173/147 63/175/149 64/176/150
f 64/176/150 62/174/148 61/173/147
f 63/175/149 65/177/151 66/178/152
f 66/178/152 64/176/150 63/175/149
f 65/177/151 67/179/153 68/180/154
f 68/180/154 66/178/152 65/177/151
f 67/179/153 69/181/155 70/182/156
f 70/182/156 68/180/154 67/179/153
f 69/181/155 71/183/157 72/184/158
f 72/184/158 70/182/156 69/181/155
f 71/183/157 37/185/123 40/186/126
f 40/186/126 72/184/158 71/183/157
f 40/152/126 39/151/125 2/112/92
f 2/112/92 1/111/91 40/152/126
f 73/60/58 74/59/57 4/114/94
f 4/114/94 3/113/93 73/60/58
f 39/151/125 42/154/128 5/115/95
f 5/115/95 2/112/92 39/151/125
f 75/62/60 73/60/58 3/113/93
f 3/113/93 6/116/96 75/62/60
f 42/154/128 44/156/130 7/117/97
f 7/117/97 5/115/95 42/154/128
f 76/64/62 75/62/60 6/116/96
f 6/116/96 8/118/98 76/64/62
f 44/156/130 46/158/132 9/119/99
f 9/119/99 7/117/97 44/156/130
f 77/66/64 76/64/62 8/118/98
f 8/118/98 10/120/100 77/66/64
f 46/158/132 48/160/134 11/121/101
f 11/121/101 9/119/99 46/158/132
f 78/68/66 77/66/64 10/120/100
f 10/120/100 12/122/102 78/68/66
f 48/160/134 50/162/136 13/123/103
f 13/123/103 11/121/101 48/160/134
f 79/70/68 78/68/66 12/122/102
f 12/122/102 14/124/104 79/70/68
f 50/162/136 52/164/138 15/125/105
f 15/125/105 13/123/103 50/162/136
f 80/72/70 79/70/68 14/124/104
f 14/124/104 16/126/105 80/72/70
f 52/164/138 54/166/140 17/127/106
f 17/127/106 15/125/105 52/164/138
f 81/74/72 80/72/70 16/126/105
f 16/126/105 18/128/106 81/74/72
f 54/166/140 56/168/142 19/129/107
f 19/129/107 17/127/106 54/166/140
f 82/76/74 81/74/72 18/128/106
f 18/128/106 20/130/108 82/76/74
f 56/168/142 58/170/144 21/131/109
f 21/131/109 19/129/107 56/168/142
f 83/78/76 82/76/74 20/130/108
f 20/130/108 22/132/110 83/78/76
f 58/170/144 60/172/146 23/133/111
f 23/133/111 21/131/109 58/170/144
f 84/80/78 83/78/76 22/132/110
f 22/132/110 24/134/112 84/80/78
f 60/172/146 62/174/148 25/135/113
f 25/135/113 23/133/111 60/172/146
f 85/82/80 84/80/78 24/134/112
f 24/134/112 26/136/114 85/82/80
f 62/174/148 64/176/150 27/137/115
f 27/137/115 25/135/113 62/174/148
f 86/84/82 85/82/80 26/136/114
f 26/136/114 28/138/115 86/84/82
f 64/176/150 66/178/152 29/139/116
f 29/139/116 27/137/115 64/176/150
f 87/86/84 86/84/82 28/138/115
f 28/138/115 30/140/116 87/86/84
f 66/178/152 68/180/154 31/141/117
f 31/141/117 29/139/116 66/178/152
f 88/88/86 87/86/84 30/140/116
f 30/140/116 32/142/118 88/88/86
f 68/180/154 70/182/156 33/143/119
f 33/143/119 31/141/117 68/180/154
f 89/90/88 88/88/86 32/142/118
f 32/142/118 34/144/120 89/90/88
f 70/182/156 72/184/158 35/145/121
f 35/145/121 33/143/119 70/182/156
f 90/92/90 89/90/88 34/144/120
f 34/144/120 36/146/122 90/92/90
f 72/184/158 40/186/126 1/147/91
f 1/147/91 35/145/121 72/184/158
f 74/94/57 90/92/90 36/146/122
f 36/146/122 4/148/94 74/94/57
