# Blender v2.78 (sub 0) OBJ File: 'DucatoFree_3DS.3ds'
# www.blender.org
o Ducato_whe
v 0.520391 0.159277 -1.146230
v 0.355786 0.218212 -1.149393
v 0.520174 0.218211 -1.153985
v 0.356002 0.159277 -1.141638
v 0.521026 0.104359 -1.123489
v 0.356638 0.104359 -1.118898
v 0.522036 0.057200 -1.087318
v 0.357648 0.057200 -1.082726
v 0.523353 0.021013 -1.040177
v 0.358965 0.021013 -1.035584
v 0.524887 -0.001735 -0.985281
v 0.360498 -0.001735 -0.980689
v 0.526533 -0.009493 -0.926370
v 0.362144 -0.009493 -0.921777
v 0.528178 -0.001735 -0.867457
v 0.363789 -0.001735 -0.862865
v 0.529712 0.021013 -0.812560
v 0.365323 0.021013 -0.807969
v 0.531029 0.057199 -0.765420
v 0.366639 0.057199 -0.760828
v 0.532039 0.104359 -0.729247
v 0.367650 0.104359 -0.724655
v 0.532674 0.159276 -0.706508
v 0.368285 0.159277 -0.701917
v 0.532891 0.218211 -0.698753
v 0.368502 0.218211 -0.694161
v 0.532674 0.277146 -0.706509
v 0.368285 0.277146 -0.701917
v 0.532039 0.332064 -0.729247
v 0.367650 0.332064 -0.724655
v 0.531029 0.379223 -0.765419
v 0.366639 0.379223 -0.760828
v 0.529712 0.415409 -0.812560
v 0.365323 0.415409 -0.807969
v 0.528178 0.438158 -0.867457
v 0.363789 0.438158 -0.862865
v 0.526533 0.445917 -0.926368
v 0.362144 0.445916 -0.921777
v 0.524887 0.438158 -0.985281
v 0.360498 0.438158 -0.980689
v 0.523354 0.415409 -1.040177
v 0.358965 0.415409 -1.035584
v 0.522036 0.379223 -1.087318
v 0.357648 0.379223 -1.082726
v 0.521026 0.332064 -1.123489
v 0.356638 0.332064 -1.118898
v 0.520391 0.277146 -1.146229
v 0.356002 0.277146 -1.141638
v 0.533784 0.138250 -1.119022
v 0.533388 0.245151 -1.133223
v 0.535620 0.052775 -1.053294
v 0.538404 0.011630 -0.953650
v 0.541389 0.025835 -0.846791
v 0.543775 0.091591 -0.761350
v 0.544924 0.191272 -0.720220
v 0.544527 0.298172 -0.734421
v 0.542691 0.383647 -0.800150
v 0.539908 0.424794 -0.899792
v 0.536923 0.410587 -1.006651
v 0.534537 0.344833 -1.092092
v 0.561665 0.218211 -0.927350
vt 0.1673 0.9390
vt 0.1409 0.9915
vt 0.1409 0.9390
vt 0.1673 0.9915
vt 0.1936 0.9390
vt 0.1936 0.9915
vt 0.2197 0.9390
vt 0.2197 0.9915
vt 0.2461 0.9390
vt 0.2461 0.9915
vt 0.2724 0.9390
vt 0.2724 0.9915
vt 0.2985 0.9390
vt 0.2985 0.9915
vt 0.3249 0.9390
vt 0.3249 0.9915
vt 0.3513 0.9390
vt 0.3513 0.9915
vt 0.3776 0.9390
vt 0.3776 0.9915
vt 0.4037 0.9390
vt 0.4037 0.9915
vt 0.4301 0.9390
vt 0.4301 0.9915
vt 0.4564 0.9390
vt 0.4564 0.9915
vt 0.4825 0.9390
vt 0.4825 0.9915
vt 0.5089 0.9390
vt 0.5089 0.9915
vt 0.5355 0.9390
vt 0.5355 0.9915
vt 0.5618 0.9390
vt 0.5618 0.9915
vt 0.5879 0.9390
vt 0.5879 0.9915
vt 0.6143 0.9390
vt 0.6143 0.9915
vt 0.6406 0.9390
vt 0.6406 0.9915
vt 0.0355 0.9390
vt 0.0094 0.9915
vt 0.0094 0.9390
vt 0.0355 0.9915
vt 0.0619 0.9390
vt 0.0619 0.9915
vt 0.0882 0.9390
vt 0.0882 0.9915
vt 0.1146 0.9390
vt 0.1146 0.9915
vt 0.6093 0.2420
vt 0.7042 0.2420
vt 0.6038 0.2552
vt 0.6956 0.2307
vt 0.6625 0.8809
vt 0.6495 0.9107
vt 0.6572 0.9207
vt 0.6523 0.8887
vt 0.6608 0.8683
vt 0.6871 0.8490
vt 0.6742 0.8507
vt 0.6918 0.8372
vt 0.7242 0.8337
vt 0.7123 0.8288
vt 0.7343 0.8258
vt 0.7640 0.8390
vt 0.7562 0.8288
vt 0.7767 0.8372
vt 0.7959 0.8635
vt 0.7943 0.8507
vt 0.8078 0.8683
vt 0.8112 0.9006
vt 0.8162 0.8887
vt 0.8192 0.9107
vt 0.8060 0.9405
vt 0.8162 0.9326
vt 0.8078 0.9532
vt 0.7815 0.9723
vt 0.7943 0.9707
vt 0.7767 0.9842
vt 0.7443 0.9878
vt 0.7562 0.9927
vt 0.7343 0.9955
vt 0.7045 0.9824
vt 0.7123 0.9927
vt 0.6918 0.9842
vt 0.6726 0.9579
vt 0.6742 0.9707
vt 0.6608 0.9532
vt 0.6523 0.9326
vt 0.7343 0.9107
vt 0.6843 0.3168
vt 0.6568 0.3241
vt 0.6426 0.3223
vt 0.6709 0.3223
vt 0.6956 0.3081
vt 0.6294 0.3168
vt 0.7042 0.2968
vt 0.6181 0.3081
vt 0.7097 0.2835
vt 0.6093 0.2968
vt 0.7116 0.2694
vt 0.6038 0.2835
vt 0.7097 0.2552
vt 0.6020 0.2694
vt 0.6843 0.2219
vt 0.6181 0.2307
vt 0.6709 0.2164
vt 0.6294 0.2219
vt 0.6568 0.2145
vt 0.6426 0.2164
vn -0.0277 -0.1305 -0.9911
vn -0.0258 -0.3827 -0.9235
vn -0.0222 -0.6088 -0.7930
vn -0.0170 -0.7934 -0.6085
vn -0.0107 -0.9239 -0.3825
vn -0.0036 -0.9914 -0.1305
vn 0.0036 -0.9914 0.1305
vn 0.0107 -0.9239 0.3825
vn 0.0170 -0.7934 0.6085
vn 0.0222 -0.6088 0.7930
vn 0.0258 -0.3827 0.9235
vn 0.0277 -0.1305 0.9911
vn 0.0277 0.1305 0.9911
vn 0.0258 0.3827 0.9235
vn 0.0222 0.6088 0.7930
vn 0.0221 0.6088 0.7930
vn 0.0170 0.7933 0.6085
vn 0.0170 0.7934 0.6085
vn 0.0107 0.9239 0.3825
vn 0.0107 0.9239 0.3826
vn 0.0036 0.9914 0.1305
vn -0.0036 0.9914 -0.1305
vn -0.0107 0.9239 -0.3826
vn -0.0170 0.7934 -0.6085
vn -0.0222 0.6087 -0.7931
vn -0.0221 0.6088 -0.7930
vn -0.0258 0.3827 -0.9235
vn -0.0277 0.1305 -0.9911
vn -0.9996 -0.0000 0.0279
vn 0.8757 -0.0604 -0.4790
vn 0.8766 -0.0596 -0.4776
vn 0.7943 -0.2246 -0.5645
vn 0.8783 -0.2795 -0.3880
vn 0.8791 -0.2781 -0.3871
vn 0.7994 -0.4656 -0.3797
vn 0.8835 -0.4237 -0.1996
vn 0.8843 -0.4220 -0.1996
vn 0.8073 -0.5818 -0.0992
vn 0.8901 -0.4544 0.0355
vn 0.8909 -0.4529 0.0348
vn 0.8157 -0.5421 0.2019
vn 0.8962 -0.3633 0.2545
vn 0.8970 -0.3624 0.2531
vn 0.8224 -0.3572 0.4427
vn 0.9003 -0.1749 0.3987
vn 0.9010 -0.1748 0.3970
vn 0.8257 -0.0766 0.5589
vn 0.9011 0.0604 0.4293
vn 0.9019 0.0596 0.4279
vn 0.8245 0.2246 0.5193
vn 0.8986 0.2795 0.3383
vn 0.8993 0.2781 0.3374
vn 0.8194 0.4655 0.3345
vn 0.8933 0.4236 0.1500
vn 0.8941 0.4220 0.1499
vn 0.8116 0.5818 0.0539
vn 0.8867 0.4543 -0.0852
vn 0.8876 0.4529 -0.0844
vn 0.8031 0.5421 -0.2471
vn 0.8806 0.3633 -0.3042
vn 0.8814 0.3624 -0.3028
vn 0.7964 0.3572 -0.4880
vn 0.8766 0.1749 -0.4483
vn 0.8774 0.1748 -0.4467
vn 0.7932 0.0766 -0.6042
vn 0.9903 -0.0147 -0.1379
vn 0.9909 -0.0678 -0.1159
vn 0.9922 -0.1028 -0.0702
vn 0.9938 -0.1102 -0.0131
vn 0.9953 -0.0881 0.0400
vn 0.9963 -0.0424 0.0750
vn 0.9965 0.0147 0.0824
vn 0.9959 0.0678 0.0604
vn 0.9946 0.1028 0.0147
vn 0.9930 0.1102 -0.0424
vn 0.9915 0.0881 -0.0955
vn 0.9905 0.0424 -0.1305
s off
f 1/1/1 2/2/1 3/3/1
f 1/1/1 4/4/1 2/2/1
f 5/5/2 4/4/2 1/1/2
f 5/5/2 6/6/2 4/4/2
f 7/7/3 6/6/3 5/5/3
f 7/7/3 8/8/3 6/6/3
f 9/9/4 8/8/4 7/7/4
f 9/9/4 10/10/4 8/8/4
f 11/11/5 10/10/5 9/9/5
f 11/11/5 12/12/5 10/10/5
f 13/13/6 12/12/6 11/11/6
f 13/13/6 14/14/6 12/12/6
f 15/15/7 14/14/7 13/13/7
f 15/15/7 16/16/7 14/14/7
f 17/17/8 16/16/8 15/15/8
f 17/17/8 18/18/8 16/16/8
f 19/19/9 18/18/9 17/17/9
f 19/19/9 20/20/9 18/18/9
f 21/21/10 20/20/10 19/19/10
f 21/21/10 22/22/10 20/20/10
f 23/23/11 22/22/11 21/21/11
f 23/23/11 24/24/11 22/22/11
f 25/25/12 24/24/12 23/23/12
f 25/25/12 26/26/12 24/24/12
f 27/27/13 26/26/13 25/25/13
f 27/27/13 28/28/13 26/26/13
f 29/29/14 28/28/14 27/27/14
f 29/29/14 30/30/14 28/28/14
f 31/31/15 30/30/15 29/29/15
f 31/31/16 32/32/16 30/30/16
f 33/33/17 32/32/17 31/31/17
f 33/33/18 34/34/18 32/32/18
f 35/35/19 34/34/19 33/33/19
f 35/35/20 36/36/20 34/34/20
f 37/37/21 36/36/21 35/35/21
f 37/37/21 38/38/21 36/36/21
f 39/39/22 38/38/22 37/37/22
f 39/39/22 40/40/22 38/38/22
f 41/41/23 40/42/23 39/43/23
f 41/41/23 42/44/23 40/42/23
f 43/45/24 42/44/24 41/41/24
f 43/45/24 44/46/24 42/44/24
f 45/47/25 44/46/25 43/45/25
f 45/47/26 46/48/26 44/46/26
f 47/49/27 46/48/27 45/47/27
f 47/49/27 48/50/27 46/48/27
f 3/3/28 48/50/28 47/49/28
f 3/3/28 2/2/28 48/50/28
f 6/51/29 22/52/29 4/53/29
f 6/51/29 20/54/29 22/52/29
f 49/55/30 3/56/30 50/57/30
f 49/55/31 1/58/31 3/56/31
f 1/58/32 49/55/32 5/59/32
f 51/60/33 5/59/33 49/55/33
f 51/60/34 7/61/34 5/59/34
f 7/61/35 51/60/35 9/62/35
f 52/63/36 9/62/36 51/60/36
f 52/63/37 11/64/37 9/62/37
f 11/64/38 52/63/38 13/65/38
f 53/66/39 13/65/39 52/63/39
f 53/66/40 15/67/40 13/65/40
f 15/67/41 53/66/41 17/68/41
f 54/69/42 17/68/42 53/66/42
f 54/69/43 19/70/43 17/68/43
f 19/70/44 54/69/44 21/71/44
f 55/72/45 21/71/45 54/69/45
f 55/72/46 23/73/46 21/71/46
f 23/73/47 55/72/47 25/74/47
f 56/75/48 25/74/48 55/72/48
f 56/75/49 27/76/49 25/74/49
f 27/76/50 56/75/50 29/77/50
f 57/78/51 29/77/51 56/75/51
f 57/78/52 31/79/52 29/77/52
f 31/79/53 57/78/53 33/80/53
f 58/81/54 33/80/54 57/78/54
f 58/81/55 35/82/55 33/80/55
f 35/82/56 58/81/56 37/83/56
f 59/84/57 37/83/57 58/81/57
f 59/84/58 39/85/58 37/83/58
f 39/85/59 59/84/59 41/86/59
f 60/87/60 41/86/60 59/84/60
f 60/87/61 43/88/61 41/86/61
f 43/88/62 60/87/62 45/89/62
f 50/57/63 45/89/63 60/87/63
f 50/57/64 47/90/64 45/89/64
f 47/90/65 50/57/65 3/56/65
f 50/57/66 61/91/66 49/55/66
f 49/55/67 61/91/67 51/60/67
f 51/60/68 61/91/68 52/63/68
f 52/63/69 61/91/69 53/66/69
f 53/66/70 61/91/70 54/69/70
f 54/69/71 61/91/71 55/72/71
f 55/72/72 61/91/72 56/75/72
f 56/75/73 61/91/73 57/78/73
f 57/78/74 61/91/74 58/81/74
f 58/81/75 61/91/75 59/84/75
f 59/84/76 61/91/76 60/87/76
f 60/87/77 61/91/77 50/57/77
f 34/92/29 38/93/29 40/94/29
f 34/92/29 36/95/29 38/93/29
f 32/96/29 40/94/29 42/97/29
f 32/96/29 34/92/29 40/94/29
f 30/98/29 42/97/29 44/99/29
f 30/98/29 32/96/29 42/97/29
f 28/100/29 44/99/29 46/101/29
f 28/100/29 30/98/29 44/99/29
f 26/102/29 46/101/29 48/103/29
f 26/102/29 28/100/29 46/101/29
f 24/104/29 48/103/29 2/105/29
f 24/104/29 26/102/29 48/103/29
f 22/52/29 2/105/29 4/53/29
f 22/52/29 24/104/29 2/105/29
f 6/51/29 18/106/29 20/54/29
f 6/51/29 8/107/29 18/106/29
f 8/107/29 16/108/29 18/106/29
f 8/107/29 10/109/29 16/108/29
f 10/109/29 14/110/29 16/108/29
f 10/109/29 12/111/29 14/110/29
